# xmcd
#
# Track frame offsets:
#	150
#	14337
#	35170
#	52535
#	66765
#	80185
#	98250
#	112405
#	129305
#	144270
#	158375
#	172095
#	187515
#	199425
#	216350
#	232835
#	249075
#	260795
#	274105
#
# Disc length: 3876 seconds
#
# Revision: 3
# Processed by: cddbd v1.5.2PL0 Copyright (c) Steve Scherf et al.
# Submitted via: audiograbber 1.83.01
#
DISCID=010f2213
DTITLE=Various Artist - SAVA16
DYEAR=1991
DGENRE=KARAOKE
TTITLE0=Robins, Marty - Devil Woman
TTITLE1=Robins, Marty - El Paso
TTITLE2=Robins, Marty - My Woman, My Woman, My Wife
TTITLE3=Wynette, Tammy - D-I-V-O-R-C-E
TTITLE4=Wynette, Tammy - Stand By Your Man
TTITLE5=Price, Ray - For The Good Times
TTITLE6=Price, Ray - Heartaches By The Number
TTITLE7=Lee, Johnny - Lookin For Love
TTITLE8=Reddy, Helen - Delta Dawn
TTITLE9=Pruett, Jeanne - Satin Sheets
TTITLE10=Paycheck, Johnny - Take This Job And Shove It
TTITLE11=Kristofferson, Kris - Why Me
TTITLE12=Milsap,vRonnie - Daydreams About Night Things
TTITLE13=Milsap, Ronnie - Stranger In My House
TTITLE14=Jennings, Waylon - Luckenbach Texas
TTITLE15=Greenwood, Lee - It Turns Me Inside Out
TTITLE16=Forester Sisters - Just In Case
TTITLE17=Gatlin Brothers - Broken Lady
TTITLE18=Wariner, Steve - Kansas City Lights
EXTD=
EXTT0=
EXTT1=
EXTT2=
EXTT3=
EXTT4=
EXTT5=
EXTT6=
EXTT7=
EXTT8=
EXTT9=
EXTT10=
EXTT11=
EXTT12=
EXTT13=
EXTT14=
EXTT15=
EXTT16=
EXTT17=
EXTT18=
PLAYORDER=
